#!OML:ASF X:\für Bonn\!DataBase\2005_08_10_Bjorn_Final\c3d\bjorn.ASF
:FULLY-SPECIFIED
:DEGREES
64
root 5.1774 22.8151 7.97452 12.1822 -2.32084 360.9
lowerback 7.56722 0.709426 1.71042
upperback 14.4572 0.910725 0.273935
thorax 11.3254 0.607498 -0.634642
lowerneck 8.92161 -1.88253 -0.288811
upperneck 13.6892 -2.52351 0.544594
head 2.87478 -1.22741 0.228869
rclavicle -1.94809e-014 -3.97569e-015
rhumerus -34.1737 -18.1353 -86.4336
rradius 57.6057
rwrist -7.927
rhand -28.9014 26.6589
rfingers 7.12502
rthumb -2.25649 -3.30888
lclavicle -1.94809e-014 -3.97569e-015
lhumerus -34.6368 -17.2733 91.6969
lradius 50.9765
lwrist 1.33139
lhand -43.6963 -24.5912
lfingers 7.12502
lthumb -16.5288 4.72484
rfemur -39.8023 -6.6248 15.6579
rtibia 34.1553
rfoot 17.7124 6.81776
rtoes -26.0395
lfemur -37.1831 11.0573 -19.5432
ltibia 29.4067
lfoot 15.8173 -4.44828
ltoes -33.424
65
root 5.1811 22.6052 8.16592 12.412 -2.4014 360.938
lowerback 7.58339 0.738933 1.673
upperback 14.4444 0.956915 0.185148
thorax 11.3028 0.632251 -0.709172
lowerneck 9.16418 -1.86697 -0.278309
upperneck 12.8288 -2.49923 0.562357
head 2.53938 -1.21807 0.238913
rclavicle 1.59028e-015 -1.03368e-014
rhumerus -34.5833 -18.8355 -86.4762
rradius 55.8931
rwrist -8.18614
rhand -28.7215 26.4279
rfingers 7.12502
rthumb -2.08269 -3.54171
lclavicle 1.59028e-015 -1.03368e-014
lhumerus -34.6714 -16.1704 92.1122
lradius 48.9903
lwrist 1.62525
lhand -43.678 -24.8359
lfingers 7.12502
lthumb -16.5112 4.48161
rfemur -39.9529 -6.17377 15.4666
rtibia 34.0843
rfoot 18.3451 6.57519
rtoes -24.9976
lfemur -37.7871 10.3999 -19.2909
ltibia 29.6947
lfoot 15.3652 -3.97893
ltoes -33.9499
66
root 5.18563 22.3756 8.35862 12.4316 -2.49149 360.994
lowerback 7.72456 0.768192 1.62208
upperback 14.4696 1.0045 0.0943289
thorax 11.2518 0.656539 -0.779839
lowerneck 9.37556 -1.89156 -0.176659
upperneck 11.9102 -2.50498 0.363281
head 2.19125 -1.22325 0.165476
rclavicle -1.59028e-015 -5.56597e-015
rhumerus -35.0492 -19.4565 -86.4759
rradius 54.1897
rwrist -8.42396
rhand -28.597 26.2702
rfingers 7.12502
rthumb -1.96249 -3.70051
lclavicle -1.59028e-015 -5.56597e-015
lhumerus -34.6908 -14.9519 92.5432
lradius 46.9515
lwrist 1.88757
lhand -43.6447 -24.9968
lfingers 7.12502
lthumb -16.4792 4.32332
rfemur -39.8765 -5.68837 15.21
rtibia 34.1764
rfoot 18.9568 6.35558
rtoes -23.7615
lfemur -38.0858 9.63678 -18.9509
ltibia 30.0696
lfoot 14.8949 -3.63356
ltoes -34.8059
67
root 5.19017 22.1238 8.55304 12.1934 -2.59054 361.049
lowerback 8.03966 0.809165 1.58929
upperback 14.5215 1.07114 -0.0104494
thorax 11.1324 0.693123 -0.877864
lowerneck 9.5125 -1.97508 0.0632669
upperneck 11.1015 -2.5701 0.00777184
head 1.89363 -1.25317 0.0212294
rclavicle -6.36111e-015 1.03368e-014
rhumerus -35.6295 -19.8837 -86.5013
rradius 52.4732
rwrist -8.557
rhand -28.6611 26.0887
rfingers 7.12502
rthumb -2.02437 -3.88145
lclavicle -6.36111e-015 1.03368e-014
lhumerus -34.7761 -13.7446 92.9813
lradius 44.9444
lwrist 2.16182
lhand -43.4032 -24.7854
lfingers 7.12502
lthumb -16.2466 4.55388
rfemur -39.5424 -5.17323 14.9258
rtibia 34.5003
rfoot 19.5188 6.21477
rtoes -23.6083
lfemur -38.05 8.90159 -18.5521
ltibia 30.5698
lfoot 15.0408 -3.5275
ltoes -34.1148
68
root 5.19488 21.8538 8.7484 11.8141 -2.6873 361.125
lowerback 8.39847 0.839805 1.51425
upperback 14.6102 1.12209 -0.0998964
thorax 11.03 0.716732 -0.936818
lowerneck 9.53797 -2.06745 0.297507
upperneck 10.3066 -2.64913 -0.393147
head 1.6225 -1.28999 -0.13465
rclavicle 6.36111e-015 -8.34896e-015
rhumerus -36.2205 -20.0833 -86.541
rradius 50.8247
rwrist -8.65582
rhand -28.8475 25.7511
rfingers 7.12502
rthumb -2.20445 -4.21721
lclavicle 6.36111e-015 -8.34896e-015
lhumerus -34.892 -12.3419 93.4037
lradius 42.9277
lwrist 2.09801
lhand -43.1506 -24.2154
lfingers 7.12502
lthumb -16.0034 5.14358
rfemur -38.9378 -4.57797 14.5603
rtibia 35.1078
rfoot 19.7463 6.11467
rtoes -24.0218
lfemur -37.8263 8.08327 -18.1115
ltibia 31.2429
lfoot 15.4414 -3.48288
ltoes -33.4837
69
root 5.19838 21.5712 8.94426 11.4379 -2.77653 361.165
lowerback 8.70093 0.895026 1.50231
upperback 14.6717 1.20691 -0.207067
thorax 10.9326 0.765064 -1.04934
lowerneck 9.60925 -2.17392 0.528429
upperneck 9.42154 -2.7575 -0.674833
head 1.32087 -1.33968 -0.249108
rclavicle 4.37326e-015 -7.95139e-015
rhumerus -36.9092 -20.3298 -86.6425
rradius 49.3059
rwrist -8.48335
rhand -29.1702 25.1689
rfingers 7.12502
rthumb -2.51612 -4.79597
lclavicle 4.37326e-015 -7.95139e-015
lhumerus -35.0312 -10.9063 93.7268
lradius 40.8826
lwrist 1.78493
lhand -42.8347 -23.3341
lfingers 7.12502
lthumb -15.6992 6.04909
rfemur -38.2222 -3.90873 14.2225
rtibia 36.0608
rfoot 19.2039 6.24178
rtoes -24.9673
lfemur -37.5572 7.08575 -17.5465
ltibia 32.1258
lfoot 15.9895 -3.31881
ltoes -33.1401
70
root 5.20396 21.2755 9.14063 11.1244 -2.89978 361.263
lowerback 8.87332 0.94471 1.39715
upperback 14.6928 1.2803 -0.307887
thorax 10.8596 0.797067 -1.10196
lowerneck 9.56988 -2.23663 0.675282
upperneck 8.58099 -2.82117 -0.933334
head 1.05653 -1.36968 -0.343756
rclavicle -4.37326e-015 3.37934e-015
rhumerus -37.6639 -20.4244 -86.7096
rradius 47.8709
rwrist -8.11297
rhand -29.4955 24.3932
rfingers 7.12502
rthumb -2.83023 -5.56781
lclavicle -4.37326e-015 3.37934e-015
lhumerus -35.1982 -9.20531 93.9995
lradius 38.9328
lwrist 1.42547
lhand -42.4292 -22.5654
lfingers 7.12502
lthumb -15.3086 6.84801
rfemur -37.684 -3.3104 13.848
rtibia 37.3608
rfoot 17.9291 6.81033
rtoes -26.0355
lfemur -37.3412 6.00739 -17.0377
ltibia 33.2556
lfoot 16.3386 -3.44746
ltoes -33.3181
71
root 5.20839 20.9714 9.33661 10.8797 -3.01251 361.362
lowerback 8.94012 1.00789 1.3005
upperback 14.6726 1.3715 -0.419887
thorax 10.8003 0.839457 -1.16994
lowerneck 9.31327 -2.27898 0.759164
upperneck 7.82622 -2.87457 -1.03243
head 0.859125 -1.39609 -0.38266
rclavicle -1.43125e-014 7.7526e-015
rhumerus -38.3519 -20.6342 -86.7743
rradius 46.3605
rwrist -7.59718
rhand -29.6843 23.7108
rfingers 7.12502
rthumb -3.01257 -6.24764
lclavicle -1.43125e-014 7.7526e-015
lhumerus -35.3121 -7.33905 94.1339
lradius 37.039
lwrist 1.27433
lhand -41.8892 -22.4493
lfingers 7.12502
lthumb -14.7884 7.00305
rfemur -37.31 -2.76391 13.521
rtibia 38.9514
rfoot 15.878 7.82045
rtoes -27.4017
lfemur -37.2281 4.91905 -16.5536
ltibia 34.6996
lfoot 16.0514 -3.92941
ltoes -34.0222
72
root 5.21352 20.6576 9.53424 10.6641 -3.133 361.44
lowerback 9.00046 1.06606 1.22306
upperback 14.5996 1.45609 -0.532479
thorax 10.6823 0.879957 -1.2498
lowerneck 8.63412 -2.29063 0.761865
upperneck 7.42876 -2.90008 -1.05427
head 0.842691 -1.41181 -0.394091
rclavicle -8.54774e-015 1.39149e-014
rhumerus -38.9449 -20.832 -86.8107
rradius 44.7295
rwrist -7.00051
rhand -29.6494 23.1557
rfingers 7.12502
rthumb -2.97883 -6.80321
lclavicle -8.54774e-015 1.39149e-014
lhumerus -35.5178 -5.24959 94.106
lradius 35.3411
lwrist 1.34788
lhand -41.2287 -22.8198
lfingers 7.12502
lthumb -14.152 6.6782
rfemur -37.0228 -2.22633 13.2422
rtibia 40.7478
rfoot 12.8925 8.98569
rtoes -28.9141
lfemur -37.2417 3.95912 -16.1383
ltibia 36.501
lfoot 14.8311 -4.39521
ltoes -34.2394
73
root 5.21803 20.3296 9.73494 10.4818 -3.27105 361.54
lowerback 9.00415 1.13657 1.1077
upperback 14.4997 1.55527 -0.640831
thorax 10.5646 0.923163 -1.30311
lowerneck 7.71382 -2.2853 0.584502
upperneck 7.22661 -2.92349 -0.883705
head 0.931242 -1.43061 -0.322911
rclavicle 2.5842e-015 3.77691e-015
rhumerus -39.4116 -21.0995 -86.7948
rradius 43.057
rwrist -6.27245
rhand -29.4017 22.6597
rfingers 7.12502
rthumb -2.73968 -7.30243
lclavicle 2.5842e-015 3.77691e-015
lhumerus -35.7689 -3.07661 93.9221
lradius 33.7836
lwrist 1.34528
lhand -40.4352 -23.0767
lfingers 7.12502
lthumb -13.3872 6.47316
rfemur -36.8013 -1.72964 12.9765
rtibia 42.6802
rfoot 9.04741 10.187
rtoes -29.8148
lfemur -37.4005 3.09427 -15.8145
ltibia 38.6572
lfoot 12.7727 -4.71862
ltoes -33.2154
74
root 5.22207 19.9925 9.93861 10.2649 -3.42614 361.614
lowerback 9.00323 1.20611 1.01826
upperback 14.4022 1.65415 -0.762291
thorax 10.4545 0.969884 -1.38482
lowerneck 6.62034 -2.23345 0.223478
upperneck 7.11339 -2.90761 -0.360092
head 1.08509 -1.43148 -0.118392
rclavicle -5.56597e-015 -5.1684e-015
rhumerus -39.6162 -21.4651 -86.7756
rradius 41.2856
rwrist -5.6299
rhand -28.8156 22.2766
rfingers 7.12502
rthumb -2.17363 -7.69206
lclavicle -5.56597e-015 -5.1684e-015
lhumerus -35.6501 -0.690979 93.4612
lradius 31.9627
lwrist 1.15531
lhand -39.5461 -23.094
lfingers 7.12502
lthumb -12.5302 6.51029
rfemur -36.5695 -1.19404 12.7575
rtibia 44.7237
rfoot 4.59578 11.1831
rtoes -29.6305
lfemur -37.6345 2.39484 -15.5416
ltibia 41.1528
lfoot 10.0608 -5.20785
ltoes -31.7242
75
root 5.22684 19.6546 10.1437 10.0355 -3.56019 361.72
lowerback 8.9332 1.27029 0.88846
upperback 14.312 1.74366 -0.865171
thorax 10.3907 1.00684 -1.4224
lowerneck 5.27485 -2.17593 -0.107533
upperneck 7.03899 -2.87535 0.119632
head 1.29487 -1.42109 0.0656702
rclavicle 1.19271e-014 -3.57812e-015
rhumerus -39.5842 -21.8899 -86.6921
rradius 39.4899
rwrist -4.95675
rhand -28.2478 22.1292
rfingers 7.12502
rthumb -1.62526 -7.84433
lclavicle 1.19271e-014 -3.57812e-015
lhumerus -35.387 1.75978 92.8721
lradius 30.1423
lwrist 1.15386
lhand -38.5879 -23.0926
lfingers 7.12502
lthumb -11.6062 6.56599
rfemur -36.2432 -0.678591 12.5217
rtibia 46.813
rfoot -0.106961 12.0786
rtoes -28.6738
lfemur -37.9127 1.64967 -15.3118
ltibia 43.8501
lfoot 6.75941 -5.48278
ltoes -29.8323
76
root 5.23023 19.3097 10.3501 9.76052 -3.71433 361.806
lowerback 8.82973 1.34776 0.766145
upperback 14.2355 1.85133 -0.971413
thorax 10.364 1.05401 -1.46662
lowerneck 3.89822 -2.18912 -0.115556
upperneck 6.73695 -2.89911 0.132629
head 1.42999 -1.43428 0.0566377
rclavicle 3.00165e-014 -1.90833e-014
rhumerus -39.3293 -22.5241 -86.4885
rradius 37.4236
rwrist -4.22332
rhand -27.7263 22.8638
rfingers 7.12502
rthumb -1.12155 -7.11301
lclavicle 3.00165e-014 -1.90833e-014
lhumerus -35.0316 4.45181 92.0507
lradius 28.2729
lwrist 1.38566
lhand -37.5339 -23.5241
lfingers 7.12502
lthumb -10.5897 6.18912
rfemur -35.8816 -0.110863 12.322
rtibia 48.9712
rfoot -4.96518 12.9086
rtoes -27.7561
lfemur -38.1892 1.0192 -15.1104
ltibia 46.6968
lfoot 3.03687 -5.76727
ltoes -27.9277
77
root 5.23355 18.9865 10.5584 9.51097 -3.8563 361.834
lowerback 8.77435 1.42174 0.722392
upperback 14.1287 1.95484 -1.06532
thorax 10.2764 1.10594 -1.54253
lowerneck 2.50657 -2.15008 -0.258067
upperneck 6.43545 -2.86421 0.351679
head 1.57652 -1.41799 0.133145
rclavicle 7.7526e-015 3.18055e-015
rhumerus -38.8778 -23.4669 -86.0986
rradius 35.1326
rwrist -3.35879
rhand -27.2429 24.1852
rfingers 7.12502
rthumb -0.654669 -5.7935
lclavicle 7.7526e-015 3.18055e-015
lhumerus -34.6774 7.31334 91.0905
lradius 26.4748
lwrist 2.03975
lhand -37.2758 -23.9149
lfingers 7.12502
lthumb -10.3407 5.8109
rfemur -35.5899 0.4689 12.2262
rtibia 51.1102
rfoot -9.63821 13.6836
rtoes -26.6362
lfemur -38.4698 0.397589 -14.9038
ltibia 49.5792
lfoot -0.860171 -5.95821
ltoes -25.9601
78
root 5.23692 18.6746 10.7667 9.28127 -4.01561 361.879
lowerback 8.64647 1.50346 0.640633
upperback 14.0008 2.06756 -1.15307
thorax 10.2047 1.15793 -1.58881
lowerneck 1.08953 -2.09732 -0.496275
upperneck 6.22902 -2.81048 0.650503
head 1.76416 -1.3911 0.25088
rclavicle 1.41137e-014 5.96354e-016
rhumerus -38.37 -24.676 -85.5104
rradius 32.756
rwrist -2.35204
rhand -26.6598 25.4763
rfingers 7.12502
rthumb -0.0914674 -4.5034
lclavicle 1.41137e-014 5.96354e-016
lhumerus -34.4161 10.1059 90.0013
lradius 24.8008
lwrist 2.59855
lhand -37.1673 -24.4298
lfingers 7.12502
lthumb -10.236 5.30119
rfemur -35.4532 1.00081 12.1437
rtibia 53.2347
rfoot -14.0316 14.4452
rtoes -24.2249
lfemur -38.7186 -0.160376 -14.8023
ltibia 52.4878
lfoot -5.00358 -6.0742
ltoes -23.7624
